<svg xmlns="http://www.w3.org/2000/svg" version="1.1" xmlns:xlink="http://www.w3.org/1999/xlink" x="0" y="0" viewBox="0 0 24 24" style="enable-background:new 0 0 512 512" xml:space="preserve"><g><path d="M11.85 7.35a1.6 1.6 0 1 1 3.2 0 1.6 1.6 0 0 1-3.2 0zm-.55 4.569 1.595 1.063a1 1 0 0 0 .555.169h3.2a1 1 0 1 0 0-2h-2.897l-1.504-1.003a1.792 1.792 0 0 0-2.463.452l-2.02 2.828a2.579 2.579 0 0 0-.275 2.533 2.581 2.581 0 0 0 2.023 1.552l1.808.258-1.221 3.663a.999.999 0 1 0 1.897.633l1.297-3.891c.17-.508.105-1.06-.176-1.516a1.792 1.792 0 0 0-1.277-.836l-2.045-.292a.59.59 0 0 1-.467-.358.589.589 0 0 1 .063-.584l1.908-2.67zM2.25 6.25h4.793L5.896 7.397a.5.5 0 1 0 .707.707l2-2a.5.5 0 0 0 0-.707l-2-2a.5.5 0 1 0-.707.707L7.043 5.25H2.25a.5.5 0 1 0 0 1zm4.298 11.066-.116.234H2.25a1 1 0 1 0 0 2h4.8a1 1 0 0 0 .894-.553l.18-.36a4.037 4.037 0 0 1-1.576-1.321zm.747-7.598-2.4 1.6a1 1 0 1 0 1.11 1.664l.47-.313c.025-.038.045-.077.07-.114l2.02-2.827c.047-.066.105-.117.156-.178H7.85a1 1 0 0 0-.555.168zM20.25 1.25h-8a2.502 2.502 0 0 0-2.5 2.5v4.41a3.76 3.76 0 0 1 1-.275V3.75c0-.827.673-1.5 1.5-1.5h8c.827 0 1.5.673 1.5 1.5v16c0 .827-.673 1.5-1.5 1.5h-5.872l-.333 1h6.205c1.379 0 2.5-1.121 2.5-2.5v-16c0-1.379-1.121-2.5-2.5-2.5z" fill="currentColor" opacity="1" data-original="#000000"/></g></svg>