<svg xmlns="http://www.w3.org/2000/svg" version="1.1" xmlns:xlink="http://www.w3.org/1999/xlink" x="0" y="0" viewBox="0 0 60 60" style="enable-background:new 0 0 512 512" xml:space="preserve"><g><path fill="#2f4693" d="M28.119 41.447a.5.5 0 0 1-.282-.913l8.95-6.126-11.822 6.825a.5.5 0 0 1-.523-.851l6.209-4.029-8.09 4.67a.5.5 0 0 1-.525-.85l9.026-5.919-11.125 6.422a.5.5 0 0 1-.516-.857l1.828-1.144-2.948 1.7a.5.5 0 0 1-.527-.85l12.318-8.176-14.487 8.365a.5.5 0 0 1-.521-.853l10.248-6.63-11.752 6.786a.5.5 0 0 1-.525-.851l12.656-8.338-13.863 8a.5.5 0 0 1-.523-.852L21.761 30.2l-10.869 6.277a.5.5 0 0 1-.523-.852l8.478-5.5L10.393 35a.5.5 0 0 1-.533-.845l10.372-7.1-9.821 5.67a.5.5 0 0 1-.53-.847l6.319-4.27-5.115 2.954a.5.5 0 0 1-.55-.833l6.665-4.988-4.373 2.525a.5.5 0 0 1-.558-.827l3.166-2.482a.5.5 0 0 1-.1-.908l4.781-2.76a.5.5 0 0 1 .559.826l-2.239 1.756 5.532-3.193a.5.5 0 0 1 .55.833L17.856 25.5l10.082-5.82a.5.5 0 0 1 .531.846l-6.319 4.27 8.864-5.116a.5.5 0 0 1 .532.844l-10.371 7.1 13.762-7.945a.5.5 0 0 1 .523.851l-8.477 5.5 10.781-6.223a.5.5 0 0 1 .522.851l-10.438 6.78L39.9 20.483a.5.5 0 0 1 .526.851l-12.661 8.339 14.183-8.189a.5.5 0 0 1 .522.853l-10.251 6.631 11.234-6.486a.5.5 0 0 1 .526.85l-12.314 8.175 13.341-7.7a.5.5 0 0 1 .515.856l-1.834 1.147 2.087-1.21a.5.5 0 0 1 .525.851l-9.024 5.918 9.53-5.5a.5.5 0 0 1 .522.852l-6.211 4.03 6.466-3.733a.5.5 0 0 1 .532.846l-8.953 6.128 9.294-5.365a.5.5 0 0 1 .54.84l-8.08 5.741 8.269-4.773a.5.5 0 0 1 .545.836L43.6 35.782l6.069-3.5a.5.5 0 0 1 .535.844l-1.208.836.7-.4a.5.5 0 0 1 .595.8l-2.634 2.5 1.1-.634a.5.5 0 1 1 .5.865L44.5 39.826a.5.5 0 0 1-.595-.8l2.633-2.5-7.576 4.374a.5.5 0 0 1-.535-.843l1.214-.84-3.4 1.96a.5.5 0 0 1-.546-.836l6.136-4.509-9.6 5.542a.5.5 0 0 1-.54-.84l8.081-5.734-11.4 6.583a.494.494 0 0 1-.253.064z" opacity="1" data-original="#2f4693"/><path fill="#3f59b7" d="M31.052 23.415a.5.5 0 0 1-.3-.9l2.608-1.965-4.727 2.729a.5.5 0 0 1-.551-.832l5.98-4.51-8.017 4.628a.5.5 0 0 1-.535-.843l5.19-3.593-6.254 3.61a.5.5 0 0 1-.53-.846l4.881-3.3-5.6 3.232a.5.5 0 0 1-.529-.848l5.589-3.767-6.157 3.554a.5.5 0 0 1-.536-.844l7.973-5.53L21 18.319a.5.5 0 0 1-.522-.852l2.177-1.412-2.214 1.278a.5.5 0 0 1-.535-.843l8.083-5.625-8.229 4.751a.5.5 0 0 1-.522-.852l.913-.59-.655.378a.5.5 0 0 1-.523-.852l1.827-1.194-1.479.853a.5.5 0 0 1-.54-.839l6.842-4.874-6.272 3.621a.5.5 0 0 1-.535-.844l3.63-2.514L19.684 9.5a.5.5 0 0 1-.549-.834l3.906-2.908-2.395 1.386a.5.5 0 0 1-.568-.819l2.4-1.976a.5.5 0 0 1-.089-.907l4.027-2.324a.5.5 0 0 1 .567.819l-1.6 1.316L29.97.606a.5.5 0 0 1 .549.834l-3.907 2.909L32.5.949a.5.5 0 0 1 .534.844L29.4 4.307l4.79-2.765a.5.5 0 0 1 .54.84l-6.83 4.87 8.115-4.685a.5.5 0 0 1 .523.852L34.7 4.62l2.271-1.31a.5.5 0 0 1 .521.852l-.923.6 1.186-.684a.5.5 0 0 1 .535.843l-8.075 5.619L38.9 5.521a.5.5 0 0 1 .523.853L37.23 7.793l2.249-1.3a.5.5 0 0 1 .535.844l-7.972 5.53 8.139-4.7a.5.5 0 0 1 .529.848l-5.589 3.767 5.428-3.133a.5.5 0 0 1 .53.847L36.2 13.8l4.507-2.6a.5.5 0 0 1 .535.844l-5.186 3.594L40.619 13a.5.5 0 0 1 .551.832l-5.978 4.508 4.759-2.747a.5.5 0 0 1 .551.832L37.89 18.39l.789-.455a.5.5 0 0 1 .5.865L31.3 23.348a.491.491 0 0 1-.248.067z" opacity="1" data-original="#3f59b7"/><path fill="#e1eff4" d="M5.781 59.47a.5.5 0 0 1-.268-.922l2.359-1.5-4.032 2.326a.5.5 0 0 1-.52-.853l3.208-2.052-4.055 2.341a.5.5 0 0 1-.52-.855l2.072-1.323-2.315 1.337a.5.5 0 0 1-.532-.845l7.566-5.186-7.464 4.309a.5.5 0 0 1-.536-.847l5.827-4.06L1.28 54.4a.5.5 0 0 1-.542-.838l4.247-3.048L1.28 52.65a.5.5 0 0 1-.566-.82l4-3.26-3.434 1.981a.5.5 0 0 1-.592-.8l2.262-2.115-1.67.964a.5.5 0 0 1-.632-.756l.938-1.108a.5.5 0 0 1-.222-.931l2.05-1.184a.5.5 0 0 1 .632.756l-.781.923 2.948-1.7a.5.5 0 0 1 .592.8l-2.261 2.113 5.05-2.913a.5.5 0 0 1 .566.82l-4 3.26 7.07-4.08a.5.5 0 0 1 .542.839l-4.243 3.042 6.728-3.881a.5.5 0 0 1 .536.842L10.965 49.5l8.494-4.9a.5.5 0 0 1 .532.844l-7.567 5.187L22.871 44.6a.5.5 0 0 1 .52.854l-2.079 1.326 3.779-2.18a.5.5 0 0 1 .519.853L22.4 47.5l5.036-2.9a.5.5 0 0 1 .518.854l-2.365 1.505 4.088-2.359a.5.5 0 0 1 .525.85l-7 4.609 9.46-5.459a.5.5 0 0 1 .52.853L30.128 47.4l4.858-2.8a.5.5 0 0 1 .519.854l-2.084 1.324L37.2 44.6a.5.5 0 0 1 .528.848L29.8 50.723 40.41 44.6a.5.5 0 0 1 .532.844l-9.63 6.6L44.2 44.6a.5.5 0 0 1 .528.848l-7.835 5.213 10.5-6.061a.5.5 0 0 1 .533.844l-9.74 6.687L51.23 44.6a.5.5 0 0 1 .522.852L46.583 48.8l7.278-4.2a.5.5 0 0 1 .526.849L47.2 50.194l9.449-5.454a.5.5 0 0 1 .524.851l-6.6 4.339L58 45.64a.5.5 0 0 1 .519.853l-2.144 1.376 2.18-1.258a.5.5 0 0 1 .524.851L55.666 49.7l3.054-1.762a.5.5 0 0 1 .531.845L54.78 51.83l3.94-2.274a.5.5 0 0 1 .542.839l-4.4 3.164 3.854-2.225a.5.5 0 0 1 .569.817L55.144 55.6l3.576-2.07a.5.5 0 0 1 .559.825l-.876.689.317-.182a.5.5 0 0 1 .655.725l-1.27 1.761.031-.017a.5.5 0 0 1 .5.865l-2.05 1.184a.5.5 0 0 1-.655-.725L57.2 56.9l-4.345 2.5a.5.5 0 0 1-.559-.825l.879-.691-2.628 1.516a.5.5 0 0 1-.569-.817l4.144-3.441-7.378 4.258a.5.5 0 0 1-.542-.839L50.6 55.4l-6.937 4a.5.5 0 0 1-.531-.845l4.468-3.044-6.74 3.889a.5.5 0 0 1-.524-.85l3.414-2.238L38.4 59.4a.5.5 0 0 1-.519-.853l2.156-1.384-3.876 2.237a.5.5 0 0 1-.524-.85l6.593-4.335-8.983 5.185a.5.5 0 0 1-.525-.849l7.19-4.748-9.695 5.6a.5.5 0 0 1-.522-.852l5.169-3.351-7.278 4.2a.5.5 0 0 1-.533-.844L36.8 51.87 23.747 59.4a.5.5 0 0 1-.527-.848l7.832-5.21L20.557 59.4a.5.5 0 0 1-.533-.844l9.631-6.6L16.766 59.4a.5.5 0 0 1-.528-.848l7.922-5.277L13.551 59.4a.5.5 0 0 1-.519-.854l2.084-1.324-3.774 2.178a.5.5 0 0 1-.52-.853l3.061-1.955L9.017 59.4a.5.5 0 0 1-.526-.85l7-4.609-9.46 5.459a.5.5 0 0 1-.25.07z" opacity="1" data-original="#e1eff4"/><g fill="#262626"><path d="M9.687 31.249c-6.419 13.959 42.731 13.672 41.047 2.1-.458-6.5-6.154-12.111-12.307-13.625 5.931-5.569 3.245-16.5-4.731-18.6C22.943-2.515 13.044 11.467 21.36 19.835A17.156 17.156 0 0 0 9.687 31.249zM21.218 6.355C29.935-7.136 48 9.666 36.771 20.1c-8.59 7.993-21.704-4.245-15.553-13.745zm1.052 14.332a12.1 12.1 0 0 0 15.13-.027 15.862 15.862 0 0 1 11.5 10.87c2.3 11.863-20.233 8.645-27.429 8.432-16.954-.181-11.113-16.117.799-19.275z" fill="#262626" opacity="1" data-original="#262626"/><path d="M8.515 59.556h46.872a3.946 3.946 0 0 0 4.331-3.277c.159-9.581 1.52-12.872-9.825-11.834-15.23.033-30.465-.053-45.693 0-5.78.4-3.579 7.7-3.936 11.6.19 4.327 5.276 3.511 8.251 3.511zm-6.779-11.6c.126-2.164 1.727-2.4 3.388-2.4h49.795c5.182-.3 2.953 6.5 3.345 9.754 1.957 6-21.813 2.088-26.208 3.136-9.606-.194-19.34.43-28.882-.219-2.823-2.261-1.008-7.048-1.438-10.275z" fill="#262626" opacity="1" data-original="#262626"/><path d="M29.2 52.168c-4.224 3.588-2.923 4.559.63.63 3.714 4.368 5.57 2.785.966-.966 4.224-3.588 2.923-4.559-.63-.63-3.712-4.368-5.566-2.785-.966.966zM16.389 54.77c.057 2.349 2.8-1.241 3.536-1.855 3.612 4.362 5.451 2.612.99-.99 4.365-3.6 2.726-5.049-.84-.84-3.612-4.362-5.452-2.612-.99.99zM9.2 52.135c-4.252 3.586-2.891 4.688.669.669.98.747 2.811 3.794 3.814 1.936L10.8 51.865c4.251-3.586 2.891-4.688-.669-.669-.98-.747-2.811-3.794-3.814-1.936zM49.116 52.07c-4.363 3.606-2.762 5.01.814.814 3.535 4.114 5.454 2.714.954-.954 4.363-3.606 2.762-5.01-.814-.814-3.535-4.116-5.454-2.716-.954.954zM39.186 52.172c-4.234 3.59-2.91 4.583.642.642 3.716 4.458 5.582 2.732.986-.986 4.234-3.59 2.91-4.583-.642-.642-3.716-4.458-5.582-2.732-.986.986z" fill="#262626" opacity="1" data-original="#262626"/></g></g></svg>