<svg xmlns="http://www.w3.org/2000/svg" version="1.1" xmlns:xlink="http://www.w3.org/1999/xlink" x="0" y="0" viewBox="0 0 682.667 682.667" style="enable-background:new 0 0 512 512" xml:space="preserve"><g><defs><clipPath id="a" clipPathUnits="userSpaceOnUse"><path d="M0 512h512V0H0Z" fill="#000000" opacity="1" data-original="#000000"/></clipPath></defs><g clip-path="url(#a)" transform="matrix(1.33333 0 0 -1.33333 0 682.667)"><path d="M0 0v-12.418c0-10.579 8.576-19.155 19.155-19.155S38.31-22.997 38.31-12.418V0Z" style="fill-opacity:1;fill-rule:nonzero;stroke:none" transform="translate(285.868 39.073)" fill="#bc7c63" data-original="#bc7c63"/><path d="M0 0c-6.508 0-13.902.483-20.155 1.402v-75.771c-.035-1.578 1.211-3.055 2.986-3.055h36.324V1.402A131.653 131.653 0 0 0 0 0" style="fill-opacity:1;fill-rule:nonzero;stroke:none" transform="translate(305.023 246.31)" fill="#bc7c63" data-original="#bc7c63"/><path d="M0 0v12.418h-20.48V0c0-10.579 8.576-19.155 19.155-19.155 3.77 0 7.276 1.105 10.24 2.986C3.563-12.772 0-6.809 0 0" style="fill-opacity:1;fill-rule:nonzero;stroke:none" transform="translate(306.348 26.655)" fill="#ab6b51" data-original="#ab6b51"/><path d="M0 0c-6.508 0-13.902.483-20.155 1.402v-75.771c-.035-1.578 1.211-3.055 2.986-3.055H1.325V.024C.882.02.444 0 0 0" style="fill-opacity:1;fill-rule:nonzero;stroke:none" transform="translate(305.023 246.31)" fill="#ab6b51" data-original="#ab6b51"/><path d="M0 0h-67.15c-1.775 0-3.021 1.477-2.986 3.055v54.499c0 6.577-5.317 11.936-11.895 11.958h-.062a17.014 17.014 0 0 1-15.421-9.817c-6.321-13.539-4.406-28.459-24.238-48.195-9.782-9.735-23.112-15.065-36.913-15.065h-18.036v-117.151h11.44c9.777 0 19.4-2.422 28.012-7.049a59.183 59.183 0 0 1 28.012-7.048h86.216c9.308 0 16.852 7.544 16.852 16.851v.001c0 9.306-7.544 16.851-16.852 16.851h7.674c9.307 0 16.852 7.545 16.852 16.852 0 9.306-7.545 16.851-16.852 16.851h7.674c9.307 0 16.851 7.545 16.851 16.852S1.634-33.704-7.673-33.704H0c9.307 0 16.852 7.545 16.852 16.852S9.307 0 0 0" style="fill-opacity:1;fill-rule:nonzero;stroke:none" transform="translate(356.004 171.887)" fill="#fed2a4" data-original="#fed2a4"/><path d="M0 0c0 7.81 3.835 14.72 9.721 18.964a53.053 53.053 0 0 0-20.686-4.195h-18.036v-117.151h11.44c5.977 0 11.894-.916 17.561-2.677z" style="fill-opacity:1;fill-rule:nonzero;stroke:none" transform="translate(208.304 153.553)" fill="#ffbd86" data-original="#ffbd86"/><path d="M0 0c0-72.125-58.469-130.595-130.595-130.595-72.125 0-130.594 58.47-130.594 130.595s58.469 130.595 130.594 130.595C-58.469 130.595 0 72.125 0 0" style="fill-opacity:1;fill-rule:nonzero;stroke:none" transform="translate(435.618 373.905)" fill="#ff656f" data-original="#ff656f"/><path d="M0 0c0 67.338 50.967 122.765 116.428 129.828a132.04 132.04 0 0 1-14.167.767C30.136 130.595-28.333 72.125-28.333 0s58.469-130.595 130.594-130.595c4.788 0 9.513.265 14.167.768C50.967-122.765 0-67.338 0 0" style="fill-opacity:1;fill-rule:nonzero;stroke:none" transform="translate(202.762 373.905)" fill="#ff4756" data-original="#ff4756"/><path d="M0 0c0-57.834-46.884-104.718-104.718-104.718-57.835 0-104.719 46.884-104.719 104.718s46.884 104.718 104.719 104.718C-46.884 104.718 0 57.834 0 0" style="fill-opacity:1;fill-rule:nonzero;stroke:none" transform="translate(409.74 373.905)" fill="#ff4756" data-original="#ff4756"/><path d="M0 0c0 53.029 39.418 96.845 90.552 103.761-4.634.627-9.362.957-14.167.957C18.55 104.718-28.333 57.834-28.333 0S18.55-104.718 76.385-104.718c4.805 0 9.533.33 14.167.957C39.418-96.845 0-53.029 0 0" style="fill-opacity:1;fill-rule:nonzero;stroke:none" transform="translate(228.638 373.905)" fill="#fc2d39" data-original="#fc2d39"/><path d="M0 0a2.226 2.226 0 0 0 0 3.143l24.665 24.664c5.929 5.929 6.475 15.587.832 21.789-6.025 6.621-16.285 6.803-22.542.545l-24.978-24.979a2.222 2.222 0 0 0-3.141.002l-24.767 24.767c-5.929 5.929-15.587 6.475-21.789.832-6.621-6.025-6.803-16.284-.545-22.541L-47.183 3.14a2.218 2.218 0 0 0 0-3.138l-25.082-25.081c-6.258-6.257-6.076-16.517.545-22.541 6.202-5.643 15.86-5.097 21.789.831l24.767 24.768a2.223 2.223 0 0 0 3.141.002L2.955-46.998c6.257-6.258 16.517-6.077 22.542.545 5.643 6.202 5.097 15.86-.832 21.789L0 0" style="fill-opacity:1;fill-rule:nonzero;stroke:none" transform="translate(328.718 372.334)" fill="#dfebfa" data-original="#dfebfa"/><path d="m0 0 25.082 25.082a2.219 2.219 0 0 1 0 3.137L0 53.301c-6.238 6.237-6.074 16.448.485 22.481-5.969 5.182-15.023 5.444-20.94.06-6.622-6.025-6.803-16.284-.545-22.541L4.082 28.219a2.219 2.219 0 0 0 0-3.137L-21 0c-6.258-6.257-6.077-16.516.545-22.541 5.917-5.384 14.971-5.122 20.94.061C-6.074-16.448-6.238-6.237 0 0" style="fill-opacity:1;fill-rule:nonzero;stroke:none" transform="translate(277.453 347.255)" fill="#b1dbfc" data-original="#b1dbfc"/><path d="M0 0h7.679-46.231a7.5 7.5 0 0 1 0-15h55.297C15.822-6.565 8.681 0 0 0" style="fill-opacity:1;fill-rule:nonzero;stroke:none" transform="translate(332.983 70.777)" fill="#ffbd86" data-original="#ffbd86"/><path d="M0 0h-53.902a7.5 7.5 0 0 1 0-15H9.069C8.146-6.565 1.004 0-7.676 0H0" style="fill-opacity:1;fill-rule:nonzero;stroke:none" transform="translate(348.333 104.48)" fill="#ffbd86" data-original="#ffbd86"/><path d="M0 0h70.645c-.923 8.435-8.065 15-16.746 15H0A7.5 7.5 0 0 1 0 0" style="fill-opacity:1;fill-rule:nonzero;stroke:none" transform="translate(294.431 123.184)" fill="#ffbd86" data-original="#ffbd86"/><path d="M0 0h-64.907c-2.467-1.519-4.166-4.558-4.166-7.5a7.5 7.5 0 0 1 7.5-7.5h78.318C15.823-6.565 8.681 0 0 0" style="fill-opacity:1;fill-rule:nonzero;stroke:none" transform="translate(356.004 171.887)" fill="#ffbd86" data-original="#ffbd86"/><path d="M0 0h-30.991v-139.026H0a6.685 6.685 0 0 1 6.684 6.684V-6.684A6.685 6.685 0 0 1 0 0" style="fill-opacity:1;fill-rule:nonzero;stroke:none" transform="translate(175.619 180.96)" fill="#dfebfa" data-original="#dfebfa"/><path d="M166.604 180.96h-21.977V41.934h21.977z" style="fill-opacity:1;fill-rule:nonzero;stroke:none" fill="#b1dbfc" data-original="#b1dbfc"/><path d="M0 0h-52.075c-5.277 0-9.554-4.278-9.554-9.555v-145.497c0-5.277 4.277-9.555 9.554-9.555H0a9.555 9.555 0 0 1 9.555 9.555V-9.555A9.555 9.555 0 0 1 0 0" style="fill-opacity:1;fill-rule:nonzero;stroke:none" transform="translate(138.072 193.751)" fill="#60b8fe" data-original="#60b8fe"/><path d="M0 0v145.497a9.555 9.555 0 0 0 9.555 9.555h-35.593c-5.276 0-9.554-4.278-9.554-9.555V0c0-5.277 4.278-9.555 9.554-9.555H9.555A9.555 9.555 0 0 0 0 0" style="fill-opacity:1;fill-rule:nonzero;stroke:none" transform="translate(112.035 38.7)" fill="#23a8fe" data-original="#23a8fe"/><path d="M0 0h-53.899" style="stroke-width:15;stroke-linecap:round;stroke-linejoin:round;stroke-miterlimit:10;stroke-dasharray:none;stroke-opacity:1" transform="translate(348.3 138.183)" fill="none" stroke="#020202" stroke-width="15" stroke-linecap="round" stroke-linejoin="round" stroke-miterlimit="10" stroke-dasharray="none" stroke-opacity="" data-original="#020202"/><path d="M0 0h-46.226" style="stroke-width:15;stroke-linecap:round;stroke-linejoin:round;stroke-miterlimit:10;stroke-dasharray:none;stroke-opacity:1" transform="translate(340.627 104.48)" fill="none" stroke="#020202" stroke-width="15" stroke-linecap="round" stroke-linejoin="round" stroke-miterlimit="10" stroke-dasharray="none" stroke-opacity="" data-original="#020202"/><path d="M0 0h-38.552" style="stroke-width:15;stroke-linecap:round;stroke-linejoin:round;stroke-miterlimit:10;stroke-dasharray:none;stroke-opacity:1" transform="translate(332.953 70.777)" fill="none" stroke="#020202" stroke-width="15" stroke-linecap="round" stroke-linejoin="round" stroke-miterlimit="10" stroke-dasharray="none" stroke-opacity="" data-original="#020202"/><path d="M0 0h-27.991v-139.026H0a6.685 6.685 0 0 1 6.684 6.684V-6.684A6.685 6.685 0 0 1 0 0Z" style="stroke-width:15;stroke-linecap:round;stroke-linejoin:round;stroke-miterlimit:10;stroke-dasharray:none;stroke-opacity:1" transform="translate(175.588 180.96)" fill="none" stroke="#020202" stroke-width="15" stroke-linecap="round" stroke-linejoin="round" stroke-miterlimit="10" stroke-dasharray="none" stroke-opacity="" data-original="#020202"/><path d="M0 0h-67.15c-1.775 0-3.021 1.477-2.986 3.055v54.499c0 6.577-5.317 11.936-11.895 11.958h-.062a17.014 17.014 0 0 1-15.421-9.817c-6.321-13.539-4.406-28.459-24.238-48.195-9.782-9.735-23.112-15.065-36.913-15.065h-15.036v-117.151h8.44c9.777 0 19.4-2.422 28.012-7.049a59.185 59.185 0 0 1 28.012-7.048h86.216c9.308 0 16.852 7.544 16.852 16.851v.001c0 9.306-7.544 16.851-16.852 16.851h7.674c9.307 0 16.852 7.545 16.852 16.852 0 9.306-7.545 16.851-16.852 16.851h7.674c9.307 0 16.851 7.545 16.851 16.852S1.634-33.704-7.673-33.704H0c9.307 0 16.852 7.545 16.852 16.852v0C16.852-7.545 9.307 0 0 0Z" style="stroke-width:15;stroke-linecap:round;stroke-linejoin:round;stroke-miterlimit:10;stroke-dasharray:none;stroke-opacity:1" transform="translate(355.974 171.887)" fill="none" stroke="#020202" stroke-width="15" stroke-linecap="round" stroke-linejoin="round" stroke-miterlimit="10" stroke-dasharray="none" stroke-opacity="" data-original="#020202"/><path d="M0 0c0-72.125-58.469-130.595-130.595-130.595-72.125 0-130.594 58.47-130.594 130.595s58.469 130.595 130.594 130.595C-58.469 130.595 0 72.125 0 0Z" style="stroke-width:15;stroke-linecap:round;stroke-linejoin:round;stroke-miterlimit:10;stroke-dasharray:none;stroke-opacity:1" transform="translate(435.587 373.905)" fill="none" stroke="#020202" stroke-width="15" stroke-linecap="round" stroke-linejoin="round" stroke-miterlimit="10" stroke-dasharray="none" stroke-opacity="" data-original="#020202"/><path d="M0 0v-10.418c0-10.579 8.576-19.155 19.155-19.155S38.31-20.997 38.31-10.418V0Z" style="stroke-width:15;stroke-linecap:round;stroke-linejoin:round;stroke-miterlimit:10;stroke-dasharray:none;stroke-opacity:1" transform="translate(285.838 37.073)" fill="none" stroke="#020202" stroke-width="15" stroke-linecap="round" stroke-linejoin="round" stroke-miterlimit="10" stroke-dasharray="none" stroke-opacity="" data-original="#020202"/><path d="M0 0c-6.508 0-12.902.483-19.155 1.402v-69.771c-.035-1.578 1.211-3.055 2.986-3.055h35.324V1.402A131.653 131.653 0 0 0 0 0Z" style="stroke-width:15;stroke-linecap:round;stroke-linejoin:round;stroke-miterlimit:10;stroke-dasharray:none;stroke-opacity:1" transform="translate(304.993 243.31)" fill="none" stroke="#020202" stroke-width="15" stroke-linecap="round" stroke-linejoin="round" stroke-miterlimit="10" stroke-dasharray="none" stroke-opacity="" data-original="#020202"/><path d="M0 0a2.226 2.226 0 0 0 0 3.143l24.665 24.664c5.929 5.929 6.475 15.587.832 21.789-6.025 6.621-16.285 6.803-22.541.545l-24.979-24.979a2.222 2.222 0 0 0-3.141.002l-24.767 24.767c-5.929 5.929-15.587 6.475-21.789.832-6.621-6.025-6.803-16.284-.545-22.541L-47.183 3.14a2.218 2.218 0 0 0 0-3.138l-25.082-25.081c-6.258-6.257-6.076-16.517.545-22.541 6.202-5.643 15.86-5.097 21.789.831l24.767 24.768a2.223 2.223 0 0 0 3.141.002L2.956-46.998c6.256-6.258 16.516-6.077 22.541.545 5.643 6.202 5.097 15.86-.832 21.789L0 0Z" style="stroke-width:15;stroke-linecap:round;stroke-linejoin:round;stroke-miterlimit:10;stroke-dasharray:none;stroke-opacity:1" transform="translate(328.688 372.334)" fill="none" stroke="#020202" stroke-width="15" stroke-linecap="round" stroke-linejoin="round" stroke-miterlimit="10" stroke-dasharray="none" stroke-opacity="" data-original="#020202"/><path d="M0 0c-8.33 49.502-51.384 87.218-103.255 87.218-57.834 0-104.718-46.884-104.718-104.718s46.884-104.718 104.718-104.718C-51.384-122.218-8.33-84.502 0-35" style="stroke-width:15;stroke-linecap:round;stroke-linejoin:round;stroke-miterlimit:10;stroke-dasharray:none;stroke-opacity:1" transform="translate(408.247 391.405)" fill="none" stroke="#020202" stroke-width="15" stroke-linecap="round" stroke-linejoin="round" stroke-miterlimit="10" stroke-dasharray="none" stroke-opacity="" data-original="#020202"/><path d="M0 0h8.538c5.276 0 9.554 4.278 9.554 9.555v145.497c0 5.277-4.278 9.555-9.554 9.555h-52.075a9.555 9.555 0 0 1-9.555-9.555V9.555A9.555 9.555 0 0 1-43.537 0H-35" style="stroke-width:15;stroke-linecap:round;stroke-linejoin:round;stroke-miterlimit:10;stroke-dasharray:none;stroke-opacity:1" transform="translate(129.505 29.144)" fill="none" stroke="#020202" stroke-width="15" stroke-linecap="round" stroke-linejoin="round" stroke-miterlimit="10" stroke-dasharray="none" stroke-opacity="" data-original="#020202"/></g></g></svg>