<svg xmlns="http://www.w3.org/2000/svg" version="1.1" xmlns:xlink="http://www.w3.org/1999/xlink" x="0" y="0" viewBox="0 0 511.999 511.999" style="enable-background:new 0 0 512 512" xml:space="preserve"><g><path d="m144.97 156.139.124-.413-.124.413zM417.522 250.955c3.851-49.124-13.803-82.206-41.16-102.26-16.423 2.605-41.457 8.48-59.437 19.011a131.167 131.167 0 0 1 4.679 12.224c3.144 9.638 5.018 18.931 6.139 27.447 2.445 18.589-12.759 34.774-31.478 33.726l-.032-.002c-14.47-.81-26.201-11.851-28.116-26.216-.811-6.079-2.035-12.37-3.882-17.706-2.483-7.177-5.562-12.715-8.934-17.027-.181-.22-.353-.445-.526-.669-7.788-9.579-17.05-12.791-24.238-14.349-6.368-1.379-14.862-2.41-24.466-3.172-6.896 18.758-9.224 35.131-9.251 35.331-2.005 15.044-14.852 25.953-29.623 25.953a30.12 30.12 0 0 1-4.001-.267c-16.39-2.184-27.901-17.276-25.718-33.667.108-.809 1.763-12.862 6.386-29.341l-.009.03c-2.198 0-4.347.006-6.452.016-27.311 25.943-41.473 67.968-40.535 107.75.023.966.099 1.937.097 2.918-.142 105.726 132.617 248.784 245.485 232.555 149.549-21.503 69.255-178.073 75.072-252.285z" style="" fill="#ef3a47" data-original="#ef3a47"/><path d="M156.717 124.773c4.135-8.894 8.73-17.036 13.748-24.399-30.586-.685-58.15.103-63.386.269-16.525.524-29.497 14.345-28.974 30.871.523 16.525 14.32 29.508 30.87 28.977 7.881-.249 20.487-.486 34.877-.486 2.953-10.529 7.112-22.86 12.865-35.232z" style="" fill="#f77474" data-original="#f77474"/><path d="M156.717 124.773c4.135-8.894 8.73-17.036 13.748-24.399-30.586-.685-58.15.103-63.386.269-16.525.524-29.497 14.345-28.974 30.871.523 16.525 14.32 29.508 30.87 28.977 7.881-.249 20.487-.486 34.877-.486 2.953-10.529 7.112-22.86 12.865-35.232zM312.632 103.719c-11.657 4.517-23.4 10.258-34.077 17.543-5.885-3.869-12.226-7.103-18.956-9.716a76.515 76.515 0 0 0-3.416-.084c-6.642 0-26.855 0-44.681 37.519-2.064 4.343-3.864 8.724-5.43 12.983 9.604.762 18.098 1.793 24.466 3.172 7.189 1.557 16.45 4.77 24.238 14.349.174.224.346.449.526.669 3.372 4.312 6.451 9.85 8.934 17.027 1.847 5.336 3.071 11.626 3.882 17.706 1.916 14.366 13.647 25.406 28.116 26.216l.032.002c18.72 1.048 33.923-15.136 31.478-33.726-1.12-8.517-2.994-17.809-6.139-27.447a131.06 131.06 0 0 0-4.679-12.224c23.15-13.561 58.003-19.403 71.1-20.483 16.464-1.316 28.756-15.718 27.462-32.189-1.296-16.483-15.696-28.793-32.192-27.501-4.458.351-26.135 2.355-51.555 9.747" style="" fill="#f77474" data-original="#f77474"/><path d="M275.209 119.171a102.103 102.103 0 0 0-15.611-7.625 76.515 76.515 0 0 0-3.416-.084c-6.642 0-26.855 0-44.681 37.519-2.064 4.343-3.864 8.724-5.43 12.983 9.604.762 18.098 1.793 24.466 3.172a56.62 56.62 0 0 1 4.232 1.08c7.164-20.388 26.187-39.761 40.44-47.045z" style="" fill="#e55555" data-original="#e55555"/><path d="m206.07 161.965.003-.008c.354-.96.721-1.928 1.099-2.899l.219-.56c.39-.992.788-1.987 1.205-2.985l.018-.043c.395-.948.806-1.898 1.225-2.848l.322-.723c.436-.974.879-1.947 1.34-2.918 17.827-37.519 38.04-37.519 44.681-37.519 10.698 0 19.887 2.051 27.848 6.255 20.324-12.513 43.621-19.942 62.627-24.304-6.981-8.481-14.859-15.747-23.512-21.731l10.441-34.672c3.012-10-2.654-20.547-12.653-23.558-10.001-3.013-20.547 2.653-23.558 12.653l-8.915 29.602a119.1 119.1 0 0 0-13.37-2.752V26.4c0-10.443-8.466-18.909-18.909-18.909s-18.909 8.466-18.909 18.909v27.034a95.147 95.147 0 0 0-12.99 3.533l-9.293-30.863c-3.011-9.999-13.556-15.664-23.558-12.653-9.999 3.011-15.664 13.559-12.653 23.558l12.011 39.886c-13.403 11.979-24.867 28.081-34.071 47.879-14.745 31.713-19.064 63.216-19.241 64.542-2.184 16.39 9.327 31.483 25.718 33.667 1.345.18 2.681.267 4.001.267 14.771 0 27.619-10.909 29.623-25.953.028-.202 2.355-16.574 9.251-35.332z" style="" fill="#9b3e2c" data-original="#9b3e2c"/><path d="M224.809 179.486c.174.224.346.449.525.669 3.372 4.312 6.451 9.85 8.934 17.027 1.847 5.336 3.071 11.626 3.882 17.706 1.915 14.366 13.647 25.406 28.116 26.216l.032.002a29.906 29.906 0 0 0 16.674-3.954 30.287 30.287 0 0 1-14.855-22.264c-.811-6.079-2.035-12.37-3.882-17.706-2.483-7.177-5.562-12.715-8.934-17.027-.181-.22-.353-.445-.525-.669-7.788-9.579-17.05-12.791-24.238-14.349-6.368-1.379-14.862-2.41-24.466-3.172a182.092 182.092 0 0 0-1.479 4.192c6.42 1.887 13.815 5.456 20.216 13.329zM417.522 250.955c3.851-49.124-13.803-82.206-41.16-102.26a240.857 240.857 0 0 0-23.671 5.013c23.712 20.383 38.411 52.007 34.865 97.247-5.817 74.212 74.478 230.782-75.072 252.285a122.8 122.8 0 0 1-3.194.412c11.147 1.232 22.247 1.158 33.16-.412 149.549-21.503 69.255-178.073 75.072-252.285z" style="" fill="#ce3043" data-original="#ce3043"/><path d="M136.696 100.124c-12.417 11.338-21.759 38.715-21.759 60.205 7.646-.181 17.737-.324 28.917-.325 2.952-10.528 7.112-22.859 12.864-35.231 4.135-8.894 8.73-17.036 13.748-24.399-12.137-.272-23.792-.311-33.77-.25zM305.692 240.14c14.07-3.738 24.068-17.426 22.051-32.761-1.12-8.517-2.994-17.809-6.139-27.447a131.06 131.06 0 0 0-4.679-12.224c23.15-13.561 58.003-19.403 71.1-20.483 16.624-1.327 28.994-15.999 27.421-32.67a.073.073 0 0 1-.009-.008c-54.203 5.143-92.308 20.562-112.636 30.934-9.846 5.024-14.78 16.312-11.814 26.961 5.569 19.995 11.858 48.283 14.705 67.698z" style="" fill="#e55555" data-original="#e55555"/><path d="M196.819 197.296c.028-.201 2.354-16.573 9.251-35.331l.003-.008c.354-.96.721-1.928 1.099-2.899l.219-.56c.39-.992.788-1.987 1.205-2.985l.018-.043c.395-.948.806-1.898 1.225-2.848l.322-.723c.436-.974.879-1.947 1.34-2.918 17.827-37.519 38.04-37.519 44.681-37.519 10.698 0 19.887 2.051 27.848 6.255 7.579-4.666 15.571-8.623 23.601-11.98-13.127-10.732-30.46-18.296-53.273-18.296-78.681 0-91.164 135.541-91.164 135.541 1.345.18 2.681.267 4.001.267 14.772 0 27.62-10.909 29.624-25.953z" style="" fill="#7a232e" data-original="#7a232e"/><path d="m144.972 156.133.119-.398-.119.398zM137.476 189.315c.108-.809 1.762-12.856 6.382-29.328l-.005.018c-2.199 0-4.348.006-6.453.016-12.217 11.606-21.803 26.429-28.583 42.831 3.536 10.462 12.732 18.573 24.409 20.129a29.804 29.804 0 0 0 18.945-3.754c-10.177-5.895-16.344-17.531-14.695-29.912z" style="" fill="#ce3043" data-original="#ce3043"/><path d="M169.547 366.472a7.494 7.494 0 0 0 8.354-6.516c.578-4.68 1.955-14.178 3.801-23.562a197.13 197.13 0 0 0 7.424 13.572c.212.443.464.861.755 1.25a200.064 200.064 0 0 0 25.239 33.097c-.646 7.262-1.723 23.519.479 33.29a7.494 7.494 0 0 0 8.956 5.661 7.491 7.491 0 0 0 5.661-8.955c-.905-4.015-1.051-10.258-.887-16.302a216.167 216.167 0 0 0 20.808 16.118 7.45 7.45 0 0 0 4.213 1.302 7.49 7.49 0 0 0 4.227-13.68c-21.669-14.776-37.394-31.484-48.78-47.511h19.093a7.492 7.492 0 0 0 0-14.982h-28.675a178.76 178.76 0 0 1-11.41-23.767c-10.252-26.226-10.845-46.174-10.85-46.371a7.492 7.492 0 0 0-14.979.319c.017.823.494 18.924 9.113 43.975-5.412 15.562-8.903 43.459-9.058 44.71a7.49 7.49 0 0 0 6.516 8.352z" fill="#000000" opacity="1" data-original="#000000"/><path d="M432.187 319.925a2012.721 2012.721 0 0 1-2.772-16.376c-1.218-7.445-2.11-13.443-2.806-18.879-1.784-13.932-2.298-24.459-1.619-33.129 3.799-48.467-12.662-78.952-31.152-97.644 17.869-4.002 30.592-20.68 29.118-39.448-1.617-20.571-19.688-35.996-40.248-34.383-3.13.247-16.169 1.427-33.284 5.069-5.385-6.082-11.265-11.574-17.574-16.384l8.908-29.58c2.034-6.752 1.316-13.892-2.021-20.104-3.337-6.213-8.893-10.754-15.644-12.786-6.753-2.036-13.893-1.317-20.106 2.02-6.212 3.336-10.753 8.893-12.785 15.645l-6.883 22.858-.736-.149V26.4c0-14.557-11.843-26.4-26.4-26.4-14.556 0-26.4 11.843-26.4 26.4v21.067l-.496.131-7.123-23.654c-4.197-13.937-18.954-21.861-32.891-17.666-6.752 2.034-12.309 6.575-15.646 12.786-3.336 6.213-4.054 13.353-2.021 20.104l10.667 35.421c-5.571 5.395-10.795 11.477-15.651 18.213-29.155-.54-54.755.193-59.777.353-20.628.655-36.879 17.968-36.225 38.595.317 9.995 4.501 19.266 11.784 26.107 6.989 6.566 16.031 10.139 25.578 10.139.41 0 .821-.007 1.233-.02 3.384-.107 7.197-.198 11.239-.272-20.29 26.263-31.95 63.11-31.074 100.238.01.448.03.898.051 1.35.021.459.045.922.044 1.383-.013 9.839 1.073 20.204 3.228 30.805.824 4.054 4.782 6.675 8.834 5.848a7.491 7.491 0 0 0 5.848-8.834c-1.955-9.615-2.94-18.968-2.929-27.802 0-.697-.028-1.391-.06-2.083-.016-.34-.032-.678-.039-1.019-.793-33.623 9.57-66.822 27.628-90.342-1.273 6.289-1.835 10.333-1.935 11.074-2.728 20.478 11.697 39.356 32.154 42.081 1.652.221 3.331.333 4.992.333 18.657 0 34.585-13.952 37.043-32.404.002-.014.023-.162.065-.427l.007-.046.041-.262.009-.059.054-.329.012-.074.061-.368.021-.123.079-.456.012-.072.104-.587.006-.031a147.157 147.157 0 0 1 .298-1.605l.12-.625.056-.285.111-.56.07-.349.117-.572.076-.367c.04-.193.081-.391.124-.589l.089-.42.13-.601.095-.438.144-.65.098-.44c.054-.242.111-.489.168-.737l.091-.396a227.53 227.53 0 0 1 .565-2.37l.138-.555.173-.695.155-.61.176-.685.168-.644.18-.681.18-.672.188-.69.191-.693c.066-.236.132-.473.2-.711.066-.233.131-.465.199-.7.068-.239.139-.48.209-.721.07-.241.139-.481.211-.724.071-.243.145-.487.218-.732l.22-.734a199.763 199.763 0 0 1 .677-2.177l.236-.744.265-.812.187-.571c.261.025.529.049.787.075a227.257 227.257 0 0 1 3.119.329c.314.035.632.069.941.105.893.103 1.765.209 2.609.317l.208.026c.874.113 1.715.229 2.534.348.276.04.539.081.808.121a130.006 130.006 0 0 1 2.481.395 104.2 104.2 0 0 1 1.523.269c.232.043.469.085.696.128.7.134 1.378.269 2.02.408 5.891 1.276 13.478 3.758 19.955 11.683l.015.019c.173.224.346.446.524.666.387.495.764 1.007 1.135 1.533.212.301.415.617.62.929.155.234.315.459.467.699 2.129 3.348 3.967 7.249 5.489 11.642 1.477 4.27 2.667 9.736 3.535 16.246 2.392 17.946 17.164 31.701 35.155 32.708.708.04 1.415.059 2.121.059h.004c.664 0 1.327-.018 1.986-.053.286-.015.568-.045.852-.066.383-.029.766-.054 1.147-.094.31-.033.616-.079.924-.12.354-.046.707-.09 1.059-.146.31-.05.617-.111.925-.169.348-.065.694-.128 1.039-.202.304-.066.605-.141.907-.214.345-.084.689-.167 1.032-.26.296-.08.588-.169.882-.257.345-.103.688-.208 1.03-.32a41.97 41.97 0 0 0 1.877-.678 41.552 41.552 0 0 0 1.84-.777 35.729 35.729 0 0 0 1.799-.876c.256-.133.511-.267.764-.406.333-.183.661-.374.989-.566.246-.145.491-.289.733-.439.328-.204.65-.417.973-.63.233-.155.467-.308.697-.468.325-.227.642-.463.96-.7.219-.164.441-.323.656-.491.326-.254.643-.52.962-.786.198-.165.399-.325.593-.493.344-.299.677-.611 1.012-.924.16-.15.325-.293.481-.445.486-.47.962-.954 1.425-1.453 7.585-8.176 11.104-19.186 9.655-30.21a168.523 168.523 0 0 0-2.289-13.259c7.178 8.195 15.13 18.889 21.855 31.889-1.159 9.384-14.201 24.372-23.694 32.519a7.491 7.491 0 0 0 4.879 13.18 7.457 7.457 0 0 0 4.867-1.8c.294-.251 7.264-6.243 14.235-14.486 3.093-3.657 5.701-7.187 7.827-10.584 5.584 16.055 8.742 34.639 7.028 55.514a7.49 7.49 0 0 0 7.474 8.105 7.493 7.493 0 0 0 7.459-6.879c.588-7.164.658-14.3.235-21.382 2.88 2.312 5.141 4.358 6.052 5.634a7.481 7.481 0 0 0 6.102 3.137 7.492 7.492 0 0 0 6.09-11.845c-4.039-5.656-15.361-13.69-20.904-17.442-2.635-13.135-7.034-25.964-13.142-38.287a7.573 7.573 0 0 0-.515-1.041 168.22 168.22 0 0 0-12.889-21.385c-9.214-13.018-18.677-22.67-25.369-28.752 10.193-4.492 21.908-7.945 32.675-10.382.468-.105.945-.214 1.402-.314l.195-.043a240.082 240.082 0 0 1 9.667-1.887c26.513 20.784 38.83 53.125 35.645 93.756-.762 9.721-.224 21.225 1.694 36.204.718 5.612 1.634 11.775 2.882 19.395a2046.17 2046.17 0 0 0 2.792 16.496c4.95 28.777 10.069 58.534 8.796 85.693a7.492 7.492 0 0 0 7.49 7.842 7.492 7.492 0 0 0 7.478-7.141c1.338-28.791-3.921-59.367-9.008-88.935zM108.735 153.003c-5.994.188-11.707-1.961-16.075-6.065-4.367-4.102-6.876-9.664-7.067-15.661-.392-12.37 9.354-22.753 21.723-23.146 3.661-.116 18.397-.541 37.448-.541 3.952 0 8.088.018 12.35.062a187.384 187.384 0 0 0-5.428 10.274l-.049.097a209.366 209.366 0 0 0-1.714 3.591 201.58 201.58 0 0 0-1.518 3.349c-.177.4-.351.804-.525 1.206a190.265 190.265 0 0 0-2.322 5.534 193.895 193.895 0 0 0-1.32 3.346 240.002 240.002 0 0 0-1.778 4.747l-.001.002c-.279.772-.552 1.55-.825 2.328l-.343.981c-.277.799-.55 1.602-.82 2.409l-.174.527a261.701 261.701 0 0 0-1.66 5.18l-.031.1c-.124.402-.253.798-.376 1.202l-.457.002-.409.002-.011.001c-10.259.052-20.596.221-28.618.473zm166.807 60.893c-1-7.501-2.422-13.949-4.227-19.165-2.579-7.454-5.981-13.91-10.114-19.192l-.109-.136c-.108-.131-.21-.266-.313-.399l-.079-.103a7.883 7.883 0 0 0-.113-.143c-9.535-11.727-20.812-15.287-28.466-16.944a91.493 91.493 0 0 0-2.189-.443l-.556-.106c-.764-.143-1.546-.284-2.364-.421l-.131-.021a149.06 149.06 0 0 0-3.088-.479c-.885-.129-1.79-.256-2.728-.378l-.226-.029c-.89-.115-1.808-.227-2.745-.337l-.678-.079c-.215-.025-.421-.05-.637-.074l.16-.359c.438-.981.879-1.951 1.327-2.895 15.795-33.243 32.444-33.243 37.915-33.243.642 0 1.259.029 1.887.045 5.837 2.353 11.339 5.217 16.371 8.524a7.496 7.496 0 0 0 8.338-.072 131.71 131.71 0 0 1 6.965-4.425 147.73 147.73 0 0 1 1.851-1.082c.398-.229.793-.457 1.195-.684a150.26 150.26 0 0 1 2.257-1.242c.302-.163.597-.329.901-.49.988-.525 1.991-1.043 3.004-1.555.453-.229.914-.453 1.372-.68a160.329 160.329 0 0 1 5.336-2.522c.498-.226.995-.452 1.499-.674.821-.363 1.653-.719 2.488-1.073.293-.124.579-.252.874-.375a7.496 7.496 0 0 0 4.023-9.804 7.49 7.49 0 0 0-9.802-4.021 198.154 198.154 0 0 0-5.119 2.234c-.265.119-.528.239-.792.359a186.963 186.963 0 0 0-4.927 2.332c-.116.057-.23.116-.346.174a179.216 179.216 0 0 0-4.464 2.291c-.245.13-.491.258-.734.388a167.472 167.472 0 0 0-4.428 2.464c-.094.054-.194.106-.288.16-7.27-3.168-15.299-4.868-24.339-5.186a80.051 80.051 0 0 0-3.122-.066c-5.314 0-10.351.854-15.127 2.576-14.327 5.163-26.299 18.127-36.322 39.22a148.214 148.214 0 0 0-1.679 3.676l-.07.158c-.374.847-.741 1.7-1.109 2.572-.04.096-.082.191-.122.288l-.073.171c-.292.698-.565 1.392-.842 2.087-.189.47-.38.937-.564 1.412l-.083.213c-.391 1.002-.77 2.002-1.136 2.994l-.003.009-.013.034-.001.003c-3.366 9.159-5.691 17.799-7.212 24.415-.042.181-.08.354-.12.531l-.173.763-.084.383c-.156.704-.304 1.387-.44 2.034l-.089.427a189.675 189.675 0 0 0-.786 3.981 135.222 135.222 0 0 0-.49 2.785l-.086.524a66.102 66.102 0 0 0-.166 1.082c-1.477 11.088-11.019 19.45-22.198 19.45-1 0-2.014-.067-3.013-.201-12.269-1.634-20.918-12.962-19.281-25.249l.025-.185.005-.035a.088.088 0 0 0 .002-.016c.253-1.797 1.923-13.035 6.136-28.057a243.802 243.802 0 0 1 5.697-17.736l.01-.026c.489-1.339.989-2.664 1.497-3.976.046-.117.089-.234.135-.352a215.667 215.667 0 0 1 1.534-3.835c.084-.205.172-.411.257-.615.426-1.026.858-2.041 1.296-3.048.137-.314.272-.627.411-.942.527-1.197 1.06-2.384 1.604-3.554a189.53 189.53 0 0 1 1.572-3.292c.248-.506.502-1.005.753-1.506.279-.555.555-1.114.837-1.663.334-.649.673-1.29 1.012-1.93.201-.379.4-.759.602-1.135.387-.716.778-1.425 1.172-2.131.159-.284.317-.569.476-.851.425-.75.853-1.492 1.286-2.228l.398-.673c.454-.765.912-1.523 1.374-2.273l.343-.552c.482-.775.969-1.544 1.46-2.302.088-.136.178-.271.267-.407.522-.8 1.048-1.593 1.579-2.373 5.81-8.529 12.204-15.936 19.139-22.136a7.492 7.492 0 0 0 2.182-7.745l-12.01-39.886a11.346 11.346 0 0 1 .874-8.695 11.342 11.342 0 0 1 6.765-5.53c6.028-1.814 12.411 1.612 14.225 7.639l9.293 30.863a7.494 7.494 0 0 0 9.645 4.913 88.102 88.102 0 0 1 11.967-3.255 7.49 7.49 0 0 0 6.043-7.35V26.4c0-6.296 5.121-11.417 11.417-11.417 6.296 0 11.417 5.121 11.417 11.417v26.556a7.492 7.492 0 0 0 6.4 7.412 112.13 112.13 0 0 1 12.53 2.578 7.491 7.491 0 0 0 9.105-5.078l8.915-29.603a11.342 11.342 0 0 1 5.529-6.766 11.356 11.356 0 0 1 8.696-.873 11.336 11.336 0 0 1 6.765 5.53 11.345 11.345 0 0 1 .874 8.695l-10.44 34.671a7.493 7.493 0 0 0 2.913 8.322 105.948 105.948 0 0 1 13.784 11.386l-.133.038c-.957.267-1.918.538-2.886.82a7.49 7.49 0 1 0 4.184 14.387 242.23 242.23 0 0 1 3.733-1.053c2.299-.63 4.633-1.236 6.986-1.811l.148-.036c1.153-.282 2.31-.555 3.47-.822 18.283-4.207 32.512-5.5 35.711-5.751 12.348-.961 23.17 8.284 24.14 20.62.968 12.324-8.269 23.151-20.61 24.137-2.783.23-6.878.714-11.824 1.495-.133.014-.266.022-.399.043-9.826 1.559-32.411 5.858-52.082 14.816l-.282.13c-.695.319-1.385.642-2.072.973l-.61.296a111.2 111.2 0 0 0-1.728.862c-.24.122-.479.243-.718.367-.558.29-1.111.584-1.66.881-.221.12-.444.237-.662.358-.753.415-1.499.835-2.234 1.266l-.044.029a6.775 6.775 0 0 0-.356.232c-.083.056-.168.111-.249.17-.098.072-.192.15-.287.227-.096.078-.193.156-.284.238a7.282 7.282 0 0 0-.221.211 7.612 7.612 0 0 0-.308.315 7.992 7.992 0 0 0-.477.581c-.026.035-.056.067-.082.103-.022.03-.038.062-.06.093-.093.134-.18.272-.264.411-.045.074-.09.148-.132.223a7.511 7.511 0 0 0-.198.39c-.043.088-.088.176-.127.265-.051.117-.094.238-.138.357-.039.104-.082.206-.116.311-.035.108-.061.219-.091.329a7.676 7.676 0 0 0-.144.623c-.024.13-.051.259-.068.389-.012.092-.016.183-.025.275-.011.121-.027.242-.033.364v.07c-.003.083 0 .166 0 .25 0 .153 0 .307.01.459.005.08.014.16.022.24.014.153.03.307.054.459.013.086.031.171.047.257.019.098.032.195.054.293.01.044.026.087.037.13.025.102.056.201.085.302.036.12.072.239.114.358.041.118.088.234.135.35.026.063.046.127.073.19a124.643 124.643 0 0 1 4.412 11.527c2.668 8.178 4.631 16.96 5.833 26.1.108.823.17 1.646.187 2.466.115 5.738-1.997 11.316-5.97 15.598-4.598 4.955-11.102 7.573-17.881 7.202-10.784-.614-19.662-8.91-21.105-19.737zM432.062 426.45a7.492 7.492 0 0 0-9.013 5.569c-8.684 36.768-34.635 57.043-81.665 63.806-91.165 13.107-197.587-83.964-228.312-176.217a7.493 7.493 0 0 0-14.216 4.734c16.083 48.287 52.254 98.706 96.757 134.871 42.414 34.467 87.442 52.786 128.833 52.786 6.451 0 12.82-.445 19.069-1.344 27.814-3.999 49.922-12.943 65.71-26.582 14.108-12.187 23.665-28.543 28.406-48.611a7.49 7.49 0 0 0-5.569-9.012z" fill="#000000" opacity="1" data-original="#000000"/></g></svg>